<svg width="26" height="29" viewBox="0 0 26 29" fill="none" xmlns="http://www.w3.org/2000/svg">
<g filter="url(#filter0_d_1584_1817)">
<path d="M13 14L12.6719 14.3773C12.86 14.5409 13.14 14.5409 13.3281 14.3773L13 14ZM8.63659 14.3913C8.90223 14.3158 9.05642 14.0393 8.98098 13.7737C8.90554 13.5081 8.62905 13.3539 8.36341 13.4293L8.63659 14.3913ZM17.6366 13.4293C17.371 13.3539 17.0945 13.5081 17.019 13.7737C16.9436 14.0393 17.0978 14.3158 17.3634 14.3913L17.6366 13.4293ZM16.5 7.91304C16.5 8.4462 16.2923 9.0669 15.9353 9.7267C15.5818 10.3798 15.1042 11.0308 14.6165 11.614C14.1301 12.1956 13.6422 12.6994 13.2754 13.0583C13.0922 13.2375 12.94 13.3798 12.8341 13.4768C12.7812 13.5253 12.7399 13.5624 12.7122 13.587C12.6984 13.5994 12.6879 13.6086 12.6811 13.6146C12.6777 13.6176 12.6753 13.6198 12.6737 13.6211C12.6729 13.6218 12.6724 13.6223 12.6721 13.6225C12.6719 13.6227 12.6719 13.6228 12.6718 13.6228C12.6718 13.6228 12.6718 13.6228 12.6718 13.6228C12.6719 13.6227 12.6719 13.6227 13 14C13.3281 14.3773 13.3282 14.3772 13.3283 14.3771C13.3283 14.3771 13.3284 14.377 13.3285 14.3769C13.3288 14.3767 13.329 14.3765 13.3294 14.3762C13.33 14.3756 13.3309 14.3748 13.3321 14.3738C13.3344 14.3718 13.3376 14.369 13.3418 14.3653C13.3501 14.3579 13.3622 14.3473 13.3776 14.3336C13.4085 14.306 13.4532 14.2658 13.5096 14.2141C13.6225 14.1107 13.7828 13.9609 13.9746 13.7732C14.3578 13.3984 14.8699 12.8697 15.3835 12.2556C15.8958 11.6431 16.4182 10.9354 16.8147 10.2026C17.2077 9.47658 17.5 8.68424 17.5 7.91304H16.5ZM13 14C13.3281 13.6227 13.3281 13.6227 13.3282 13.6228C13.3282 13.6228 13.3282 13.6228 13.3282 13.6228C13.3282 13.6228 13.3281 13.6227 13.3279 13.6225C13.3276 13.6223 13.3271 13.6218 13.3263 13.6211C13.3248 13.6198 13.3223 13.6176 13.3189 13.6146C13.3121 13.6086 13.3016 13.5994 13.2878 13.587C13.2601 13.5624 13.2188 13.5253 13.1659 13.4768C13.06 13.3798 12.9078 13.2375 12.7246 13.0583C12.3578 12.6994 11.8699 12.1956 11.3835 11.614C10.8958 11.0308 10.4182 10.3798 10.0647 9.7267C9.70767 9.0669 9.5 8.4462 9.5 7.91304H8.5C8.5 8.68424 8.79233 9.47658 9.18527 10.2026C9.58182 10.9354 10.1042 11.6431 10.6165 12.2556C11.1301 12.8697 11.6422 13.3984 12.0254 13.7732C12.2172 13.9609 12.3775 14.1107 12.4904 14.2141C12.5468 14.2658 12.5915 14.306 12.6224 14.3336C12.6378 14.3473 12.6499 14.3579 12.6582 14.3653C12.6624 14.369 12.6656 14.3718 12.6679 14.3738C12.6691 14.3748 12.67 14.3756 12.6706 14.3762C12.671 14.3765 12.6712 14.3767 12.6715 14.3769C12.6716 14.377 12.6717 14.3771 12.6717 14.3771C12.6718 14.3772 12.6719 14.3773 13 14ZM9.5 7.91304C9.5 6.03837 11.0566 4.5 13 4.5V3.5C10.5251 3.5 8.5 5.46548 8.5 7.91304H9.5ZM13 4.5C14.9434 4.5 16.5 6.03837 16.5 7.91304H17.5C17.5 5.46548 15.4749 3.5 13 3.5V4.5ZM20.5 16.6667C20.5 16.9527 20.363 17.2705 20.0204 17.608C19.6761 17.9471 19.1522 18.2756 18.4645 18.5622C17.0913 19.1343 15.1596 19.5 13 19.5V20.5C15.2587 20.5 17.3269 20.1195 18.8492 19.4852C19.6092 19.1686 20.2569 18.7788 20.7222 18.3203C21.1893 17.8602 21.5 17.3011 21.5 16.6667H20.5ZM13 19.5C10.8404 19.5 8.90866 19.1343 7.53545 18.5622C6.84776 18.2756 6.32388 17.9471 5.97957 17.608C5.63702 17.2705 5.5 16.9527 5.5 16.6667H4.5C4.5 17.3011 4.81069 17.8602 5.27779 18.3203C5.74312 18.7788 6.39082 19.1686 7.15084 19.4852C8.67306 20.1195 10.7413 20.5 13 20.5V19.5ZM5.5 16.6667C5.5 16.312 5.71424 15.9028 6.26296 15.4798C6.80666 15.0608 7.61675 14.6809 8.63659 14.3913L8.36341 13.4293C7.27048 13.7397 6.33057 14.1651 5.65247 14.6878C4.97937 15.2066 4.5 15.8756 4.5 16.6667H5.5ZM17.3634 14.3913C18.3833 14.6809 19.1933 15.0608 19.737 15.4798C20.2858 15.9028 20.5 16.312 20.5 16.6667H21.5C21.5 15.8756 21.0206 15.2066 20.3475 14.6878C19.6694 14.1651 18.7295 13.7397 17.6366 13.4293L17.3634 14.3913Z" fill="#2B7EFE"/>
</g>
<defs>
<filter id="filter0_d_1584_1817" x="0.5" y="3.5" width="25" height="25" filterUnits="userSpaceOnUse" color-interpolation-filters="sRGB">
<feFlood flood-opacity="0" result="BackgroundImageFix"/>
<feColorMatrix in="SourceAlpha" type="matrix" values="0 0 0 0 0 0 0 0 0 0 0 0 0 0 0 0 0 0 127 0" result="hardAlpha"/>
<feOffset dy="4"/>
<feGaussianBlur stdDeviation="2"/>
<feComposite in2="hardAlpha" operator="out"/>
<feColorMatrix type="matrix" values="0 0 0 0 0 0 0 0 0 0 0 0 0 0 0 0 0 0 0.25 0"/>
<feBlend mode="normal" in2="BackgroundImageFix" result="effect1_dropShadow_1584_1817"/>
<feBlend mode="normal" in="SourceGraphic" in2="effect1_dropShadow_1584_1817" result="shape"/>
</filter>
</defs>
</svg>
