<svg width="28" height="26" viewBox="0 0 28 26" fill="none" xmlns="http://www.w3.org/2000/svg">
<g filter="url(#filter0_d_7_3384)">
<path fill-rule="evenodd" clip-rule="evenodd" d="M13.3787 3.00526C13.7936 3.50883 14 3.90908 14 3.90908C14 3.90908 14.2064 3.50883 14.6213 3.00526C15.325 2.15122 16.6286 1 18.5429 1C21.0159 1 22.9742 3.00636 22.9995 5.40044C23.0506 10.37 18.9338 13.904 14.4219 16.874C14.2975 16.9561 14.1505 17 14 17C13.8495 17 13.7026 16.9561 13.5782 16.874C9.06573 13.904 4.94892 10.37 5.00048 5.40044C5.02579 3.00636 6.98412 1 9.45712 1C11.3714 1 12.675 2.15122 13.3787 3.00526ZM13.0284 17.7093C13.3177 17.8999 13.6561 18 14 18C14.3439 18 14.6824 17.8999 14.9717 17.7093C17.2502 16.2095 19.5042 14.5204 21.1853 12.5329C22.8787 10.5309 24.0282 8.18054 23.9995 5.39016C23.9685 2.45668 21.5727 0 18.5429 0C16.678 0 15.3069 0.896385 14.4367 1.73417C14.2761 1.88885 14.1306 2.04325 14 2.19228C13.8694 2.04325 13.7239 1.88885 13.5633 1.73417C12.6931 0.896385 11.322 0 9.45712 0C6.42727 0 4.03155 2.45639 4.00053 5.38987C3.97158 8.18028 5.12092 10.5309 6.81433 12.5329C8.49539 14.5203 10.7497 16.2096 13.0284 17.7093Z" fill="#9F9F9F"/>
</g>
<defs>
<filter id="filter0_d_7_3384" x="0" y="0" width="28" height="26" filterUnits="userSpaceOnUse" color-interpolation-filters="sRGB">
<feFlood flood-opacity="0" result="BackgroundImageFix"/>
<feColorMatrix in="SourceAlpha" type="matrix" values="0 0 0 0 0 0 0 0 0 0 0 0 0 0 0 0 0 0 127 0" result="hardAlpha"/>
<feOffset dy="4"/>
<feGaussianBlur stdDeviation="2"/>
<feComposite in2="hardAlpha" operator="out"/>
<feColorMatrix type="matrix" values="0 0 0 0 0 0 0 0 0 0 0 0 0 0 0 0 0 0 0.25 0"/>
<feBlend mode="normal" in2="BackgroundImageFix" result="effect1_dropShadow_7_3384"/>
<feBlend mode="normal" in="SourceGraphic" in2="effect1_dropShadow_7_3384" result="shape"/>
</filter>
</defs>
</svg>
