<svg width="29" height="20" viewBox="0 0 29 20" fill="none" xmlns="http://www.w3.org/2000/svg">
<path fill-rule="evenodd" clip-rule="evenodd" d="M2.42496 9.99992C4.4582 14.5427 9.10122 17.7143 14.5 17.7143C19.8988 17.7143 24.5418 14.5428 26.575 10.0001C24.5418 5.45726 19.8988 2.28571 14.5 2.28571C9.10122 2.28571 4.45824 5.45718 2.42496 9.99992ZM28 10.0001C25.8925 4.73202 20.6427 1 14.5 1C8.35729 1 3.1075 4.73193 1 9.99991C3.10745 15.268 8.35729 19 14.5 19C20.6427 19 25.8925 15.2681 28 10.0001Z" fill="white"/>
<path fill-rule="evenodd" clip-rule="evenodd" d="M14.5 13.8571C16.6822 13.8571 18.4512 12.1302 18.4512 10C18.4512 7.86976 16.6822 6.14286 14.5 6.14286C12.3178 6.14286 10.5488 7.86976 10.5488 10C10.5488 12.1302 12.3178 13.8571 14.5 13.8571ZM14.5 15.1429C17.4096 15.1429 19.7682 12.8403 19.7682 10C19.7682 7.15968 17.4096 4.85714 14.5 4.85714C11.5904 4.85714 9.23177 7.15968 9.23177 10C9.23177 12.8403 11.5904 15.1429 14.5 15.1429Z" fill="white"/>
<path fill-rule="evenodd" clip-rule="evenodd" d="M2.42496 9.99992C4.4582 14.5427 9.10122 17.7143 14.5 17.7143C19.8988 17.7143 24.5418 14.5428 26.575 10.0001C24.5418 5.45726 19.8988 2.28571 14.5 2.28571C9.10122 2.28571 4.45824 5.45718 2.42496 9.99992ZM28 10.0001C25.8925 4.73202 20.6427 1 14.5 1C8.35729 1 3.1075 4.73193 1 9.99991C3.10745 15.268 8.35729 19 14.5 19C20.6427 19 25.8925 15.2681 28 10.0001Z" stroke="white" stroke-width="0.5"/>
<path fill-rule="evenodd" clip-rule="evenodd" d="M14.5 13.8571C16.6822 13.8571 18.4512 12.1302 18.4512 10C18.4512 7.86976 16.6822 6.14286 14.5 6.14286C12.3178 6.14286 10.5488 7.86976 10.5488 10C10.5488 12.1302 12.3178 13.8571 14.5 13.8571ZM14.5 15.1429C17.4096 15.1429 19.7682 12.8403 19.7682 10C19.7682 7.15968 17.4096 4.85714 14.5 4.85714C11.5904 4.85714 9.23177 7.15968 9.23177 10C9.23177 12.8403 11.5904 15.1429 14.5 15.1429Z" stroke="white" stroke-width="0.5"/>
</svg>
